<?xml version="1.0" encoding="utf-8"?>
<!-- Generator: Adobe Illustrator 25.0.1, SVG Export Plug-In . SVG Version: 6.00 Build 0)  -->
<svg version="1.1" id="Capa_1" xmlns="http://www.w3.org/2000/svg" xmlns:xlink="http://www.w3.org/1999/xlink" x="0px" y="0px"
	 viewBox="0 0 156.1 60" style="enable-background:new 0 0 156.1 60;" xml:space="preserve">
<style type="text/css">
	.st0{fill:none;}
	.st1{fill:#F00000;}
</style>
<rect class="st0" width="156.1" height="60"/>
<path class="st1" d="M101.5,17c-3.1,0-6,1.6-7.7,4.2V9.6h-6.4v33.3H92l1.9-3.3c1.7,2.6,4.6,4.1,7.7,4c7,0,12.1-5.7,12.1-13.4
	C113.6,22.5,108.2,17,101.5,17z M100.5,37.6c-3.8,0-6.7-3.2-6.7-7.2s2.8-7.3,6.7-7.3s6.7,3.3,6.7,7.3S104.4,37.6,100.5,37.6
	L100.5,37.6z"/>
<path class="st1" d="M131.1,17c-3.1,0-6,1.6-7.7,4.2l-2-3.5h-4.4v32.7h6.4V39.7c1.7,2.6,4.6,4.1,7.7,4c7,0,12.1-5.7,12.1-13.4
	C143.2,22.5,137.8,17,131.1,17z M130.1,37.6c-3.8,0-6.7-3.2-6.7-7.2s2.8-7.3,6.7-7.3c3.8,0,6.7,3.3,6.7,7.3S134,37.6,130.1,37.6
	L130.1,37.6z"/>
<path class="st1" d="M76.4,21c-1.7-2.6-4.6-4.1-7.7-4c-7,0-12.1,5.7-12.1,13.4c0,7.8,5.4,13.3,12.1,13.3c3.1,0,6-1.6,7.7-4.2l2,3.5
	h4.5V17.7h-6.5V21z M69.7,37.6c-3.9,0-6.7-3.3-6.7-7.3s2.8-7.3,6.7-7.3s6.6,3.2,6.6,7.3S73.6,37.6,69.7,37.6z"/>
<polygon class="st1" points="23.5,9.7 0,50.4 23.5,36.8 47,50.4 "/>
</svg>
