<svg version="1.1" id="Layer_1" xmlns:x="ns_extend;" xmlns:i="ns_ai;" xmlns:graph="ns_graphs;" xmlns="http://www.w3.org/2000/svg" xmlns:xlink="http://www.w3.org/1999/xlink" x="0px" y="0px" viewBox="0 0 228 60" style="enable-background:new 0 0 228 60;" xml:space="preserve">
 <style type="text/css">
  .st0{fill:#F8CB46;}
	.st1{fill:#54B226;}
 </style>
 <metadata>
  <sfw xmlns="ns_sfw;">
   <slices>
   </slices>
   <sliceSourceBounds bottomLeftOrigin="true" height="60" width="228" x="-98.5" y="-214.8">
   </sliceSourceBounds>
  </sfw>
 </metadata>
 <g>
  <path class="st0" d="M28.7,14.4c3.9,0,7.3,1,10.3,2.9c3.1,1.9,5.5,4.6,7.2,8.1c1.7,3.3,2.5,7.3,2.5,11.8c0,4.4-0.8,8.3-2.5,11.8
		c-1.7,3.5-4,6.2-7.1,8.1c-3.1,2-6.6,3-10.4,3c-2.8,0-5.5-0.6-7.9-1.7c-2.5-1.2-4.6-2.8-6.4-4.9V59H0V0h14.4v20.9
		c1.8-2.1,3.9-3.7,6.4-4.8C23.2,14.9,25.9,14.4,28.7,14.4z M24.4,48.1c2,0,3.9-0.5,5.5-1.4c1.6-0.9,2.9-2.2,3.8-3.9
		c0.9-1.6,1.4-3.5,1.4-5.6c0-2.1-0.5-3.9-1.4-5.6c-0.9-1.7-2.2-3-3.8-3.9c-1.6-0.9-3.4-1.4-5.5-1.4c-1.9,0-3.6,0.5-5.2,1.4
		c-1.5,0.9-2.7,2.2-3.6,3.8c-0.9,1.7-1.3,3.6-1.3,5.7c0,2.1,0.4,4,1.3,5.7c0.9,1.6,2,2.9,3.6,3.9C20.7,47.6,22.4,48.1,24.4,48.1z">
  </path>
  <path class="st0" d="M50.7,59V0H65v59H50.7z">
  </path>
  <path class="st0" d="M69.1,59V15.4h14.3V59H69.1z">
  </path>
  <path class="st0" d="M114.5,14.4c3.1,0,5.8,0.7,8.3,2.1c2.5,1.4,4.4,3.4,5.8,5.9c1.3,2.6,2,5.5,2,8.8V59h-13.7V34.4
		c0-1.6-0.3-3-1-4.2c-0.6-1.3-1.5-2.2-2.6-2.9c-1.1-0.7-2.4-1-3.9-1c-1.4,0-2.7,0.3-3.9,1c-1.2,0.7-2.1,1.6-2.8,2.7
		c-0.7,1.1-1,2.4-1,3.9L101.6,59H87.3V15.4h14.3v5c1.3-1.9,3.2-3.3,5.4-4.4C109.3,14.9,111.8,14.4,114.5,14.4z">
  </path>
  <path class="st0" d="M162.1,34.4L178.4,59h-16.2l-9.5-15.4l-4.4,5.1V59h-14.4V0h14.4v32.6L162,15.4h16.2L162.1,34.4z">
  </path>
  <path class="st0" d="M69.1,0h14.3v11.2H69.1V0z">
  </path>
  <path class="st1" d="M180.6,58.8V15.2h14.3v43.6H180.6z">
  </path>
  <path class="st1" d="M225.1,46.5l2.9,9.2c-1.3,1.2-2.9,2.2-4.9,3c-2,0.8-3.9,1.2-5.7,1.2c-2.7,0-5.1-0.6-7.2-1.8
		c-2.1-1.2-3.8-2.9-5-5c-1.2-2.1-1.8-4.5-1.8-7.2V26.6h-5.7V15.2h5.7V0h13.7v15.2h9v11.4h-9v16.6c0,1.4,0.4,2.5,1.1,3.4
		c0.7,0.9,1.7,1.3,2.8,1.3c0.8,0,1.6-0.1,2.3-0.4C224.1,47.4,224.7,47,225.1,46.5z">
  </path>
  <path class="st1" d="M180.5,0h14.3v11.2h-14.3V0z">
  </path>
 </g>
</svg>