<svg version="1.1" id="Layer_1" xmlns="http://www.w3.org/2000/svg" xmlns:xlink="http://www.w3.org/1999/xlink" x="0px" y="0px" viewBox="0 0 142 75.7" style="enable-background:new 0 0 142 75.7;" xml:space="preserve">
 <style type="text/css">
  .st0{fill-rule:evenodd;clip-rule:evenodd;fill:#FFFFFF;}
	.st1{fill-rule:evenodd;clip-rule:evenodd;fill:#00529B;}
	.st2{fill-rule:evenodd;clip-rule:evenodd;fill:#FFCA05;}
	.st3{fill:#00529B;}
 </style>
 <g>
  <path class="st0" d="M3.4,0h135.3c1.8,0,3.4,1.5,3.4,3.4v68.9c0,1.9-1.5,3.4-3.4,3.4H3.4c-1.9,0-3.4-1.5-3.4-3.4V3.4
		C0,1.5,1.5,0,3.4,0">
  </path>
  <path class="st1" d="M4.5,2.2c-1.1,0-2.1,0.9-2.1,2.1v49c0,1.1,0.9,2.1,2.1,2.1h51.2V2.2H4.5">
  </path>
  <path class="st2" d="M137.5,2.2h-80v53.1h80c1.1,0,2-0.9,2-2.1v-49C139.6,3.1,138.6,2.2,137.5,2.2">
  </path>
  <polygon class="st1" points="66.6,8.6 73.2,8.6 73.2,43 87,43 87,49 66.6,49 	">
  </polygon>
  <rect x="94.2" y="8.6" class="st3" width="6.6" height="40.4">
  </rect>
  <path class="st1" d="M123.9,34.7l6.6,0c0,4.7-0.8,8.4-2.6,11.1c-1.7,2.7-3.7,4.1-7.9,4.1c-4.9,0-7.3-1.3-9.2-3.8
		c-1.9-2.6-2.8-6.8-2.8-12.8v-8.6c0-6.4,1-10.8,3-13.2c2-2.5,4.1-3.7,8.5-3.7c4.1,0,6.4,1.1,8.2,3.3c1.8,2.2,2.7,5.6,2.7,10.2
		l-6.8,0c0-2.5-0.2-4.3-0.8-5.5c-0.5-1.2-1.5-1.8-2.9-1.8c-3.5,0-5.3,2.8-5.3,8.4v13.1c0,3,0.4,5.2,1.3,6.4c0.9,1.3,2.2,1.9,4,1.9
		c1.3,0,2.3-0.7,2.9-2C123.6,40.3,123.9,38,123.9,34.7">
  </path>
  <polygon class="st0" points="31.9,45.5 31.9,45.6 31.9,45.6 31.9,45.6 31.9,45.6 31.9,45.6 31.9,45.6 31.9,45.6 31.9,45.6 	">
  </polygon>
  <path class="st0" d="M26.8,22.2c-1.4,0.3-2.3,0.9-2.3,1.5c0,0.9,0.9,2.4,2.3,3.3v-2.8c-1.1-0.2-1.9-0.5-1.9-0.8
		c0-0.3,0.7-0.7,1.9-1V22.2 M29.3,22c0.1-0.4,0.3-0.8,0.4-1.3c0.5-1.4-0.2-3-0.4-3.4c-0.2-0.5-0.8-1.8-0.8-1.8c-0.3,2.1-1.2,3-1.5,4
		c-0.2,0.5,0.1,1.2,0.3,1.7c0.2,0.3,0.3,0.6,0.5,0.9c-0.4,0-0.8,0.1-1.1,0.2v0.2c0.4-0.1,0.8-0.2,1.3-0.2l0.2,0.2
		c0.2,0.3,0.4,0.7,0.4,1.1c0,0.7-1.2,0.7-1.9,0.6V27c0.7,0.5,1.5,0.7,2.4,0.7c0.7,0,1.4-0.2,2-0.5v-3c-0.7,0-1.7,0-2-0.7
		c-0.1-0.2,0-0.7,0.1-1.3c0.7,0,1.4,0.1,1.9,0.2v-0.3C30.6,22,30,22,29.3,22 M31.1,27.2c1.5-0.9,2.6-2.6,2.6-3.5
		c0-0.7-1.1-1.3-2.6-1.6v0.3c1.2,0.2,2.1,0.7,2.1,1c0,0.3-0.7,0.6-1.8,0.8h0l-0.3,0V27.2z">
  </path>
  <path class="st0" d="M18.8,16.4c0,0,0.2-0.9,0.2-1.1c0-0.2-0.1-0.9,0.6-0.5c0.7,0.4,0.5,1,0.4,1.4c-0.1,0.3-0.5,1.6-0.7,2l-0.8,2.3
		l-0.1,0.3c0,0-0.3,1.2-0.2,2.5l0.2,1.5c0,0,0,0.1,0.1,0c0,0,0.2-0.1,0-0.8c0,0,0-1.5,0-1.8c0-0.3,0.2-1.3,0.3-1.4
		c0.1-0.2,0.1-0.2,0.3-0.7c0.2-0.5,0.7-1.8,0.7-1.8s0.7-1.4,0.8-1.8c0,0,0.3-0.8,0.3-1.8c0,0-0.1-0.3,0-0.4c0.2-0.1,0.7,0,0.9,0.2
		c0.2,0.2,0.6,0.5,0.5,1c0,0.5-0.3,1.3-0.6,2.1c0,0-0.3,0.6-0.4,0.8c-0.1,0.2-0.8,1.8-0.8,1.9l-0.2,0.3c0,0-0.3,1-0.4,1.4
		c-0.1,0.4-0.2,0.8-0.3,1.6c0,0.8,0.2,1.9,0.2,1.9s0,0.2,0.1,0.2c0.1,0,0.1-0.4,0.1-0.5c0-0.1,0-0.5-0.1-0.7c0-0.2,0-1.5,0-1.5
		s0.1-1,0.4-1.6c0.1-0.2,0.2-0.6,0.4-1c0.2-0.5,0.5-1,0.5-1s0.9-1.9,0.9-2c0-0.1,0.5-1.2,0.5-1.8c0-0.5,0.1-0.9,0.1-0.9
		s-0.1-0.4,0.5-0.2c0.5,0.2,0.8,0.7,0.9,1.1c0,0,0.1,0.4-0.1,0.5c-0.2,0.1-0.3,0-0.4,0.1c0,0-0.1,0.1-0.1,0.3c0,0.2-0.1,0.7-0.2,0.8
		c0,0.2,0,0.3-0.1,0.8c-0.2,0.4-0.6,1.8-0.7,1.9l-0.4,1l-0.1,0.3c0,0-0.4,1.6-0.5,1.9c0,0.4-0.2,1-0.1,1.4c0,0.4,0.1,0.9,0.2,1.2
		c0,0,0,0.1,0.2,0.1c0.1,0-0.1-0.5,0-1.2c0.1-0.7,0.2-1.7,0.3-1.9c0-0.3,0.5-1.6,0.5-1.7c0-0.1,0.5-1.4,0.6-1.6
		c0.1-0.2,0.5-1.5,0.5-1.7c0-0.2,0-0.9,0.7-0.9c0.6,0.2,0.6,1.4,0.5,1.8c0,0-0.1,1.2-0.5,2.1c-0.4,0.9-0.4,0.9-0.4,0.9
		c0,0.1,0.1,1,0.1,1.3c0,0.4,0,0.7-0.1,1.4c-0.2,0.7-0.1,0.8,0,0.9c0.1,0.2,0.5,0.7,0.6,1c0.1,0.3,0.2,0.9,0.2,1.1
		c0,0.1,0.5,0.5,0.7,0.9c0.1,0.3,0.7,1.1,0.7,1.2c0,0.1,1.6,2.1,2.1,2.9c0.4,0.8,0.8,1.5,0.8,2.2c0,0.5-0.3,1.1-0.6,1.6
		c-0.1,0.2-0.3,0.4-0.6,0.5c-0.1,0.1-0.4,0.2-0.5,0.4L26.9,38h-6.1l1.3-2.3c0,0,0.4-0.3-0.5-1.4c-0.9-1.1-2.5-4-2.5-4
		s-1.4-2.5-1.7-3c-0.4-0.7-0.4-4-0.4-5c0,0-0.2-1.2,0.5-2.8C18.2,17.9,18.8,16.4,18.8,16.4">
  </path>
  <path class="st0" d="M39.4,16.4c0,0-0.2-0.9-0.2-1.1c0-0.2,0.2-0.9-0.6-0.5c-0.7,0.4-0.5,1-0.4,1.4c0.1,0.3,0.5,1.6,0.8,2l0.8,2.3
		l0.1,0.3c0,0,0.4,1.2,0.2,2.5L40,24.6c0,0,0,0.1-0.2,0c0,0-0.1-0.1,0-0.8c0,0,0-1.5,0-1.8c0-0.3-0.1-1.3-0.3-1.4
		c-0.1-0.2-0.1-0.2-0.3-0.7c-0.1-0.5-0.6-1.8-0.6-1.8s-0.7-1.4-0.8-1.8c0,0-0.3-0.8-0.3-1.8c0,0,0.1-0.3,0-0.4
		c-0.1-0.1-0.6,0-0.8,0.2c-0.2,0.2-0.6,0.5-0.5,1c0.1,0.5,0.3,1.3,0.6,2.1c0,0,0.3,0.6,0.4,0.8c0.1,0.2,0.8,1.8,0.9,1.9l0.1,0.3
		c0,0,0.4,1,0.4,1.4c0.1,0.4,0.2,0.8,0.3,1.6c0,0.8-0.2,1.9-0.2,1.9s0,0.2-0.2,0.2c-0.1,0-0.1-0.4-0.1-0.5c0-0.1,0-0.5,0.1-0.7
		c0-0.2,0-1.5,0-1.5s-0.1-1-0.4-1.6c-0.1-0.2-0.2-0.6-0.4-1c-0.2-0.5-0.5-1-0.5-1s-0.8-1.9-0.9-2c0-0.1-0.5-1.2-0.5-1.8
		c0-0.5-0.1-0.9-0.1-0.9s0.1-0.4-0.4-0.2c-0.5,0.2-0.9,0.7-0.9,1.1c0,0-0.1,0.4,0.1,0.5c0.1,0.1,0.3,0,0.4,0.1c0,0,0.1,0.1,0.1,0.3
		c0,0.2,0.1,0.7,0.1,0.8c0,0.2,0,0.3,0.1,0.8c0.2,0.4,0.6,1.8,0.7,1.9l0.4,1l0.1,0.3c0,0,0.4,1.6,0.5,1.9c0,0.4,0.1,1,0.1,1.4
		c0,0.4-0.1,0.9-0.2,1.2c0,0-0.1,0.1-0.2,0.1c-0.1,0,0.1-0.5,0-1.2c0-0.7-0.2-1.7-0.3-1.9c0-0.3-0.5-1.6-0.5-1.7
		c0-0.1-0.5-1.4-0.6-1.6c-0.1-0.2-0.4-1.5-0.5-1.7c0-0.2,0-0.9-0.7-0.9c-0.7,0.2-0.6,1.4-0.5,1.8c0,0,0.1,1.2,0.5,2.1
		c0.4,0.9,0.4,0.9,0.4,0.9c0,0.1-0.1,1-0.1,1.3c0,0.4,0,0.7,0.2,1.4c0.2,0.7,0.1,0.8,0,0.9c0,0.2-0.5,0.7-0.6,1
		c-0.1,0.3-0.1,0.9-0.2,1.1c0,0.1-0.5,0.5-0.7,0.9c-0.1,0.3-0.6,1.1-0.7,1.2c0,0.1-1.6,2.1-2,2.9c-0.4,0.8-0.8,1.5-0.7,2.2
		c0,0.5,0.2,1.1,0.6,1.6c0.2,0.2,0.3,0.4,0.5,0.5c0.2,0.1,0.4,0.2,0.5,0.4l0.3,1.4h6.1l-1.3-2.3c0,0-0.5-0.3,0.5-1.4
		c0.9-1.1,2.5-4,2.5-4s1.5-2.5,1.7-3c0.4-0.7,0.4-4,0.3-5c0,0,0.1-1.2-0.5-2.8C40,17.9,39.4,16.4,39.4,16.4">
  </path>
  <path class="st0" d="M29.1,6.8h-1c-4,0-7.9,1.8-11,5.2c-2.6,2.8-4.3,6.4-4.3,9.3v15.1c0,2.8,1.6,6.5,4.2,9.3
		c3,3.3,6.9,5.1,10.8,5.1c0,0,0.6,0,1.2,0h0.1v-0.5c-0.6,0-1.3,0-1.3,0c-3.8,0-7.5-1.8-10.5-4.9c-1.1-1.2-1.9-2.4-2.6-3.7
		c-0.7-1.4-0.5-3.7-0.5-5.4V21.1c0-1.6-0.3-3.7,0.9-5.7c2.4-4.1,7.1-8.1,13-8.1h1V6.8 M29.1,50.7c0.6,0,1.1,0,1.1,0
		c4,0,7.8-1.8,10.8-5.1c2.6-2.8,4.2-6.5,4.2-9.4V21.1c0-2.7-1.7-6.3-4.3-9.1c-3.1-3.3-7-5.2-11-5.2h-0.8v0.5H30
		c6.4,0,11.2,4.8,13.5,9.2c0.8,1.7,0.5,3.3,0.5,4.6v15.1c0,1.6,0.2,3.5-0.7,5.3c-0.7,1.3-1.5,2.6-2.5,3.8c-2.9,3.2-6.7,4.9-10.5,4.9
		c0,0-0.5,0-1.1,0V50.7z">
  </path>
  <path class="st0" d="M27.1,41.3c0,0.2-0.1,0.3-0.3,0.3c-0.2,0-0.3-0.1-0.3-0.3c0-0.1,0.1-0.2,0.3-0.2C27,41.1,27.1,41.2,27.1,41.3">
  </path>
  <path class="st0" d="M23.1,40.9c-0.4,0-0.7,0.3-0.7,0.7c0,0.2,0,0.3,0.2,0.4c-0.2,0-0.3,0.1-0.3,0.2c-0.2,0.2-0.5,0.5-0.4,1
		c0.1,0.5,0.6,0.7,0.7,0.8h0.1l0,0.3l0.5,0.1v-1.2l-0.2,0.1c-0.1,0-0.3,0-0.4-0.2c-0.2-0.3,0.2-0.7,0.6-0.6l0.1,0v-0.9l-0.2-0.2
		l0.2-0.2V40.9 M23.1,44.4v-1.2l0.1,0l0.3,0.3c-0.1,0.1-0.2,0.2-0.3,0.3L23.1,44.4L23.1,44.4z M26.1,41.9c-0.1,0-0.2,0-0.4,0
		c-0.3,0-0.6-0.1-0.9-0.2L24.5,41l-0.7-0.2l0.4,0.7c-0.2,0-0.2,0-0.2,0l-0.1,0.4c0,0,0.1,0,0.2,0L24,42.3l-0.5-0.1
		c0.2-0.2,0.3-0.4,0.3-0.6c0-0.4-0.3-0.7-0.7-0.7v0.5c0.1,0,0.1,0.1,0.1,0.2l-0.1,0.2h-0.1v0.9l0.8,0.2l-0.4,1.7l0.6,0.1l0.5-2.6
		c0.2,0,0.4,0.1,0.6,0.1l-0.1,0.9c0,0-0.3-0.1-0.4,0.3c0,0.3,0.3,0.6,0.5,0.8c0.3,0.3,0.5-0.2,0.5-0.2v-0.1l0.4,0v-0.7l-0.4,0
		l0.2-0.9l0.2,0V41.9z M27.4,42c0,0-0.7,0-1.2-0.1v0.5c0.1,0,0.2,0,0.3,0l0,0.9h-0.3V44l0.2,0l0,1l0.6,0.1l0.2-2.6h0.2L27.4,42z">
  </path>
  <path class="st0" d="M17.7,38.8c-0.2-0.2-0.4-0.3-0.4-0.3L17,38.8c0,0,0.2,0.1,0.4,0.2c0,0.1,0.1,0.6-0.6,0.5h-0.2
		c0,0-0.4,0.8,0,1.4c0.3,0.4,1,0.3,1,0.3L17.1,42l0.5,0.3l0-0.1v-1.5c-0.1,0-0.3,0-0.5-0.1c-0.3-0.3-0.1-0.5-0.1-0.5
		c0.3,0,0.5-0.1,0.6-0.2V38.8 M22.1,41.5l0.1-0.4c0,0-1.2-0.4-2.3-1l-0.2-0.9l-0.5-0.3l0.2,0.9c-0.7-0.4-1.3-0.8-1.7-1v1.2
		c0.1-0.2,0.2-0.4,0.2-0.5c0.1,0.1,0.4,0.2,0.5,0.3l-0.5,0.9c0,0,0,0.1-0.1,0.1v1.5l1.3-2.2c0.1,0.1,0.2,0.1,0.4,0.2l-1.2,2.4
		l0.5,0.3l1.2-2.4c0.2,0.1,0.3,0.2,0.5,0.2c0.2,0.8-0.1,1-0.1,1c-0.1-0.2-0.4-0.2-0.4-0.2s-0.5,0.1-0.4,0.5c0.1,0.5,0.5,0.8,1,0.3
		C20.9,42,21,41.3,21,41c0.1,0,0.3,0.1,0.4,0.2l-0.9,2.5l0.6,0.2l0.9-2.5C22,41.4,22.1,41.5,22.1,41.5">
  </path>
  <path class="st0" d="M29.1,42.8c-0.6,0-1,0.5-1,1c0,0.5,0.5,0.9,1,1v-0.6c-0.2,0-0.4-0.2-0.4-0.4c0-0.2,0.2-0.4,0.4-0.4V42.8
		 M29.1,42.1c-0.5,0-0.8,0-0.8,0l0,0.4c0,0,0.3,0,0.8,0V42.1z M36.3,40.6c-0.4,0.2-0.8,0.3-1.2,0.5c-2.3,0.7-4.8,1-6,1v0.4h0.3v0.3
		l-0.2,0h-0.1v0.6h0.1l0.3,0l0,0.7c-0.1,0-0.2,0.1-0.3,0.1h-0.1v0.6h0.1c0.1,0,0.3,0,0.4-0.1l0,0.5l0.6,0l-0.2-2.7
		c0.5,0,1-0.1,1.5-0.2l0.1,0.2c0,0-0.3,0-0.6,0.1c-0.3,0.1-0.4,0.2-0.5,0.5c-0.1,0.3,0.3,0.7,0.3,0.7s-0.2,0.3-0.1,0.8
		c0.1,0.7,1.1,0.9,1.1,0.9l0.1-0.5l-0.3-0.1c-0.5-0.2-0.3-0.6-0.3-0.7c0.1-0.1,0.3-0.5,0.7-0.3c0.3,0.2,0,0.6,0,0.6l0.3,0.3
		c0.2-0.1,0.3-0.2,0.3-0.2c0.4-0.9,0-1.1-0.3-1.3c-0.3-0.2-0.7,0-0.7,0l-0.3,0l0.1-0.2l0.9-0.2l-0.1-0.8c0.1,0,0.3,0,0.4-0.1
		l0.7,2.6l0.6-0.1L33.3,42c0.2,0,0.4-0.1,0.5-0.1c0.1,0.2,0.4,1,0.4,1L33.9,43c0,0-0.2,0.3,0.1,0.5c0.4,0.2,0.6,0.3,0.7,0.3
		c0,0,0.3-0.1,0.3-0.4l0.4-0.2L35,42.6l-0.2,0.1l-0.3-1c0.2-0.1,0.5-0.1,0.7-0.2c0.1,0,0.4,0.2,0.4,0.4c0,0.4-0.4,0.4-0.4,0.4
		l-0.1,0.2c0,0,0.4,0.7,1,0.8c0.2,0,0.3,0,0.4,0v-0.6c-0.3,0-0.5-0.3-0.5-0.3s0.2-0.2,0.3-0.5c0-0.3-0.2-0.6-0.2-0.7
		c0.1-0.1,0.2-0.1,0.4-0.2V40.6z M40.4,38.3c-0.8,0.5-2.3,1.5-4,2.3v0.5l0.4,0.9c0,0.2,0,0.6-0.4,0.7l0,0v0.6c0.3,0,0.6-0.1,0.9-0.4
		l0.4,0.7l0.5-0.2l-1.1-2.5c0.5-0.2,0.9-0.4,1.3-0.6l0.1,0.1c0,0-0.2,0.2-0.4,0.3c-0.2,0.2-0.4,0.3-0.3,0.7c0,0.4,0.5,0.6,0.5,0.6
		s-0.1,0.3,0.1,0.8c0.3,0.7,1.3,0.4,1.3,0.4l-0.1-0.5l-0.2,0c-0.5,0-0.5-0.4-0.5-0.5c0-0.1,0.2-0.5,0.5-0.5c0.4,0,0.2,0.5,0.2,0.5
		l0.4,0.2c0.1-0.1,0.2-0.3,0.2-0.3c0.1-0.9-0.4-1-0.8-1.1c-0.4-0.1-0.7,0.2-0.7,0.2l-0.2,0l0-0.2l0.8-0.6l-0.4-0.7
		c0.2-0.1,0.4-0.2,0.5-0.3c0.2,0.2,0.5,0.8,0.5,0.8c0,0.1-0.1,0.1-0.1,0.3c0.1,0.2,0.4,0.3,0.6,0.3v-1l-0.5-0.7
		c0.2-0.1,0.3-0.2,0.4-0.3l0.1,0.1V38.3z M42,40.9l0.4-0.4l-1.6-2.1c0.2-0.2,0.3-0.2,0.3-0.2l-0.2-0.2c0,0-0.2,0.2-0.5,0.4v0.6
		l0.5,0.6l-0.4,0.3l-0.1-0.1v1h0.2c0.3,0,0.2-0.4,0.2-0.4l0.5-0.3L42,40.9z">
  </path>
  <path class="st0" d="M42.2,40.9l0.6-0.3H43c0.1,0.1,0,0.2,0,0.2s-0.4,0.4-0.5,0.4c-0.1,0-0.2,0-0.2,0V40.9">
  </path>
  <path class="st1" d="M129.7,69.3v3.2h0.7c0.2,0,0.5-0.1,0.6-0.2c0.2-0.1,0.3-0.3,0.4-0.5c0.2-0.3,0.2-0.6,0.2-1
		c0-0.5-0.1-0.9-0.4-1.1c-0.3-0.3-0.6-0.4-1.1-0.4H129.7 M128.7,68.4h1.8c0.4,0,0.8,0.1,1.1,0.3c0.3,0.2,0.6,0.5,0.8,0.9
		c0.2,0.4,0.3,0.8,0.3,1.2c0,0.4-0.1,0.8-0.2,1.2c-0.1,0.4-0.3,0.6-0.6,0.8c-0.2,0.1-0.4,0.3-0.7,0.4c-0.3,0.1-0.5,0.1-0.8,0.1h-1.6
		V68.4z">
  </path>
  <rect x="133.6" y="68.4" class="st3" width="1" height="4.9">
  </rect>
  <path class="st1" d="M137.4,69.8l-0.6,1.7h1.1L137.4,69.8z M136.9,68.4h1l1.6,4.9h-1l-0.4-1.2h-1.6l-0.4,1.2h-1L136.9,68.4z">
  </path>
  <polygon class="st1" points="2.5,68.4 3.4,68.4 3.4,72.5 5.4,72.5 5.4,73.4 2.5,73.4 	">
  </polygon>
  <rect x="6.3" y="68.4" class="st3" width="1" height="4.9">
  </rect>
  <polygon class="st1" points="8.5,68.4 11.5,68.4 11.5,69.3 9.5,69.3 9.5,70.6 10.6,70.6 10.6,71.4 9.5,71.4 9.5,73.4 8.5,73.4 	">
  </polygon>
  <polygon class="st1" points="12.3,68.4 15.6,68.4 15.6,69.3 13.3,69.3 13.3,70.4 14.7,70.4 14.7,71.1 13.3,71.1 13.3,72.5 
		15.6,72.5 15.6,73.4 12.3,73.4 	">
  </polygon>
  <rect x="18.6" y="68.4" class="st3" width="1" height="4.9">
  </rect>
  <polygon class="st1" points="20.8,68.4 21.8,68.4 23.8,71.7 23.8,68.4 24.8,68.4 24.8,73.4 23.8,73.4 21.7,69.9 21.7,73.4 
		20.8,73.4 	">
  </polygon>
  <path class="st1" d="M26.5,72c0.2,0.2,0.3,0.4,0.5,0.5c0.1,0.1,0.3,0.1,0.6,0.1c0.3,0,0.5-0.1,0.6-0.2c0.1-0.1,0.2-0.3,0.2-0.5
		c0-0.2-0.1-0.3-0.2-0.4c-0.1-0.1-0.4-0.2-0.8-0.3c-0.5-0.1-0.9-0.3-1.2-0.5c-0.3-0.3-0.4-0.6-0.4-1c0-0.4,0.1-0.8,0.4-1
		c0.3-0.3,0.7-0.4,1.2-0.4c0.3,0,0.5,0.1,0.8,0.1c0.2,0.1,0.4,0.2,0.6,0.4c0.1,0.1,0.2,0.2,0.3,0.4l-0.8,0.3
		c-0.1-0.2-0.3-0.3-0.4-0.4c-0.1-0.1-0.3-0.1-0.5-0.1c-0.2,0-0.4,0.1-0.5,0.2c-0.1,0.1-0.2,0.3-0.2,0.4c0,0.1,0.1,0.3,0.2,0.4
		c0.1,0.1,0.4,0.2,0.8,0.3c0.4,0.1,0.7,0.2,1,0.4c0.2,0.1,0.4,0.3,0.5,0.5c0.1,0.2,0.2,0.5,0.2,0.7c0,0.2-0.1,0.5-0.2,0.8
		c-0.1,0.2-0.3,0.4-0.6,0.6c-0.3,0.1-0.6,0.2-0.9,0.2c-0.3,0-0.6-0.1-0.9-0.2c-0.2-0.1-0.5-0.3-0.6-0.5c-0.1-0.1-0.2-0.3-0.3-0.5
		L26.5,72">
  </path>
  <path class="st1" d="M30.2,68.4h1v3c0,0.4,0.1,0.7,0.3,0.8c0.2,0.2,0.4,0.3,0.7,0.3c0.2,0,0.4,0,0.5-0.1c0.1-0.1,0.3-0.2,0.4-0.4
		c0.1-0.2,0.1-0.4,0.1-0.6v-3h1v3.1c0,0.6-0.2,1.1-0.5,1.4c-0.3,0.3-0.8,0.5-1.4,0.5c-0.4,0-0.7-0.1-1-0.2c-0.2-0.1-0.3-0.1-0.4-0.2
		c-0.1-0.1-0.3-0.3-0.4-0.5c-0.1-0.2-0.1-0.5-0.1-0.9V68.4">
  </path>
  <path class="st1" d="M36.2,69.3v1.3h0.8c0.3,0,0.5-0.1,0.7-0.2c0.1-0.1,0.2-0.3,0.2-0.5c0-0.2-0.1-0.3-0.2-0.5
		c-0.1-0.1-0.4-0.2-0.7-0.2H36.2 M35.2,68.4h1.3c0.7,0,1.2,0.1,1.5,0.2c0.3,0.1,0.5,0.3,0.6,0.5c0.2,0.2,0.2,0.5,0.2,0.9
		c0,0.3-0.1,0.5-0.2,0.7c-0.1,0.2-0.4,0.4-0.7,0.5l0.9,2.2h-0.9l-0.8-2h-0.9v2h-1V68.4z">
  </path>
  <path class="st1" d="M41.4,69.8l-0.6,1.7H42L41.4,69.8z M40.9,68.4h1l1.6,4.9h-1l-0.4-1.2h-1.6l-0.4,1.2h-1L40.9,68.4z">
  </path>
  <polygon class="st1" points="44.2,68.4 45.2,68.4 47.2,71.7 47.2,68.4 48.2,68.4 48.2,73.4 47.2,73.4 45.1,69.9 45.1,73.4 
		44.2,73.4 	">
  </polygon>
  <path class="st1" d="M53,71.9c-0.1,0.3-0.2,0.5-0.3,0.7c-0.2,0.3-0.4,0.5-0.6,0.6c-0.3,0.1-0.6,0.2-0.9,0.2c-0.4,0-0.7-0.1-1.1-0.3
		c-0.4-0.2-0.6-0.5-0.8-0.8c-0.2-0.4-0.3-0.8-0.3-1.3c0-0.5,0.1-1,0.3-1.4c0.2-0.4,0.4-0.7,0.8-0.9c0.3-0.2,0.7-0.3,1.1-0.3
		c0.3,0,0.6,0.1,0.8,0.2c0.3,0.1,0.5,0.3,0.7,0.5c0.1,0.2,0.2,0.4,0.3,0.6l-0.9,0.3c-0.1-0.3-0.2-0.5-0.3-0.6
		c-0.2-0.1-0.4-0.2-0.6-0.2c-0.3,0-0.6,0.2-0.8,0.5c-0.2,0.3-0.3,0.8-0.3,1.3c0,0.3,0.1,0.6,0.1,0.9c0.1,0.3,0.2,0.4,0.4,0.6
		c0.1,0.1,0.3,0.2,0.5,0.2c0.3,0,0.5-0.1,0.7-0.3c0.1-0.1,0.3-0.3,0.4-0.6L53,71.9">
  </path>
  <polygon class="st1" points="53.8,68.4 57.1,68.4 57.1,69.3 54.8,69.3 54.8,70.4 56.2,70.4 56.2,71.1 54.8,71.1 54.8,72.5 
		57.1,72.5 57.1,73.4 53.8,73.4 	">
  </polygon>
  <path class="st1" d="M63.8,71.9c-0.1,0.3-0.2,0.5-0.3,0.7c-0.2,0.3-0.4,0.5-0.7,0.6c-0.3,0.1-0.6,0.2-0.9,0.2
		c-0.4,0-0.7-0.1-1.1-0.3c-0.3-0.2-0.6-0.5-0.8-0.8c-0.2-0.4-0.3-0.8-0.3-1.3c0-0.5,0.1-1,0.3-1.4c0.2-0.4,0.5-0.7,0.8-0.9
		c0.4-0.2,0.7-0.3,1.1-0.3c0.3,0,0.6,0.1,0.8,0.2c0.3,0.1,0.5,0.3,0.7,0.5c0.1,0.2,0.2,0.4,0.3,0.6l-0.9,0.3
		c-0.1-0.3-0.2-0.5-0.3-0.6c-0.2-0.1-0.4-0.2-0.6-0.2c-0.3,0-0.6,0.2-0.8,0.5c-0.2,0.3-0.3,0.8-0.3,1.3c0,0.3,0,0.6,0.1,0.9
		c0.1,0.3,0.2,0.4,0.4,0.6c0.2,0.1,0.3,0.2,0.5,0.2c0.3,0,0.5-0.1,0.7-0.3c0.1-0.1,0.3-0.3,0.4-0.6L63.8,71.9">
  </path>
  <path class="st1" d="M66.4,69.2c-0.3,0-0.6,0.1-0.8,0.4c-0.2,0.3-0.3,0.7-0.3,1.3c0,0.6,0.1,1,0.3,1.3c0.2,0.3,0.5,0.4,0.8,0.4
		c0.3,0,0.6-0.1,0.8-0.4c0.2-0.3,0.3-0.7,0.3-1.3c0-0.7-0.1-1.1-0.4-1.4C67,69.3,66.7,69.2,66.4,69.2 M66.3,68.3
		c0.5,0,0.8,0.1,1.1,0.2c0.4,0.2,0.6,0.5,0.8,0.9c0.2,0.4,0.3,0.9,0.3,1.5c0,0.8-0.2,1.5-0.6,1.9c-0.4,0.4-0.9,0.6-1.5,0.6
		c-0.7,0-1.2-0.2-1.6-0.6c-0.4-0.4-0.6-1.1-0.6-1.9c0-0.5,0.1-1,0.2-1.4c0.1-0.2,0.2-0.4,0.4-0.6c0.2-0.2,0.4-0.3,0.6-0.4
		C65.8,68.4,66.1,68.3,66.3,68.3">
  </path>
  <path class="st1" d="M70.5,69.3v1.3h0.8c0.3,0,0.5-0.1,0.7-0.2c0.1-0.1,0.2-0.3,0.2-0.5c0-0.2-0.1-0.3-0.2-0.5
		c-0.1-0.1-0.4-0.2-0.7-0.2H70.5 M69.5,68.4h1.3c0.7,0,1.2,0.1,1.5,0.2c0.3,0.1,0.5,0.3,0.6,0.5s0.2,0.5,0.2,0.9
		c0,0.3-0.1,0.5-0.2,0.7c-0.1,0.2-0.4,0.4-0.7,0.5l0.9,2.2h-1l-0.8-2h-0.9v2h-1V68.4z">
  </path>
  <path class="st1" d="M75,69.3v1.3h0.8c0.3,0,0.5-0.1,0.7-0.2c0.1-0.1,0.2-0.3,0.2-0.5c0-0.2-0.1-0.3-0.2-0.5
		c-0.1-0.1-0.4-0.2-0.7-0.2H75 M74.1,68.4h1.5c0.5,0,1,0,1.2,0.1c0.3,0.1,0.5,0.2,0.7,0.5c0.2,0.2,0.2,0.5,0.2,0.8
		c0,0.3,0,0.5-0.1,0.7c-0.1,0.2-0.2,0.3-0.3,0.4c-0.1,0.1-0.3,0.2-0.5,0.3c-0.3,0.1-0.6,0.2-0.9,0.2H75v1.9h-1V68.4z">
  </path>
  <path class="st1" d="M80.5,69.2c-0.3,0-0.6,0.1-0.8,0.4c-0.2,0.3-0.3,0.7-0.3,1.3c0,0.6,0.1,1,0.3,1.3c0.2,0.3,0.5,0.4,0.8,0.4
		c0.3,0,0.6-0.1,0.8-0.4c0.2-0.3,0.3-0.7,0.3-1.3c0-0.7-0.1-1.1-0.4-1.4C81.1,69.3,80.8,69.2,80.5,69.2 M80.4,68.3
		c0.5,0,0.8,0.1,1.1,0.2c0.4,0.2,0.7,0.5,0.9,0.9s0.3,0.9,0.3,1.5c0,0.8-0.2,1.5-0.6,1.9c-0.4,0.4-0.9,0.6-1.5,0.6
		c-0.7,0-1.2-0.2-1.6-0.6c-0.4-0.4-0.6-1.1-0.6-1.9c0-0.5,0.1-1,0.2-1.4c0.1-0.2,0.2-0.4,0.4-0.6c0.2-0.2,0.4-0.3,0.6-0.4
		C79.9,68.4,80.1,68.3,80.4,68.3">
  </path>
  <path class="st1" d="M84.5,69.3v1.3h0.8c0.3,0,0.5-0.1,0.7-0.2c0.1-0.1,0.2-0.3,0.2-0.5c0-0.2-0.1-0.3-0.2-0.5
		c-0.1-0.1-0.4-0.2-0.7-0.2H84.5 M83.6,68.4h1.3c0.7,0,1.2,0.1,1.5,0.2c0.3,0.1,0.5,0.3,0.6,0.5c0.2,0.2,0.2,0.5,0.2,0.9
		c0,0.3-0.1,0.5-0.2,0.7c-0.1,0.2-0.4,0.4-0.7,0.5l0.9,2.2h-1l-0.8-2h-0.9v2h-1V68.4z">
  </path>
  <path class="st1" d="M89.8,69.8l-0.5,1.7h1.1L89.8,69.8z M89.2,68.4h1l1.6,4.9h-1l-0.4-1.2H89l-0.4,1.2h-1L89.2,68.4z">
  </path>
  <polygon class="st1" points="91.7,68.4 95.4,68.4 95.4,69.3 94,69.3 94,73.4 93,73.4 93,69.3 91.7,69.3 	">
  </polygon>
  <rect x="96.2" y="68.4" class="st3" width="1" height="4.9">
  </rect>
  <path class="st1" d="M100.3,69.2c-0.3,0-0.6,0.1-0.8,0.4c-0.2,0.3-0.3,0.7-0.3,1.3c0,0.6,0.1,1,0.3,1.3c0.2,0.3,0.5,0.4,0.8,0.4
		c0.3,0,0.6-0.1,0.8-0.4c0.2-0.3,0.3-0.7,0.3-1.3c0-0.7-0.1-1.1-0.4-1.4C100.9,69.3,100.6,69.2,100.3,69.2 M100.2,68.3
		c0.4,0,0.8,0.1,1.1,0.2c0.4,0.2,0.6,0.5,0.8,0.9c0.2,0.4,0.3,0.9,0.3,1.5c0,0.8-0.2,1.5-0.6,1.9c-0.4,0.4-0.9,0.6-1.5,0.6
		c-0.7,0-1.2-0.2-1.6-0.6c-0.4-0.4-0.6-1.1-0.6-1.9c0-0.5,0.1-1,0.2-1.4c0.1-0.2,0.2-0.4,0.4-0.6c0.2-0.2,0.4-0.3,0.6-0.4
		C99.7,68.4,99.9,68.3,100.2,68.3">
  </path>
  <polygon class="st1" points="103.3,68.4 104.4,68.4 106.4,71.7 106.4,68.4 107.3,68.4 107.3,73.4 106.4,73.4 104.3,69.9 
		104.3,73.4 103.3,73.4 	">
  </polygon>
  <path class="st1" d="M112.4,69.2c-0.3,0-0.6,0.1-0.8,0.4c-0.2,0.3-0.3,0.7-0.3,1.3c0,0.6,0.1,1,0.3,1.3c0.2,0.3,0.5,0.4,0.8,0.4
		c0.3,0,0.6-0.1,0.8-0.4c0.2-0.3,0.3-0.7,0.3-1.3c0-0.7-0.1-1.1-0.4-1.4C113,69.3,112.7,69.2,112.4,69.2 M112.3,68.3
		c0.4,0,0.8,0.1,1.1,0.2c0.4,0.2,0.6,0.5,0.8,0.9c0.2,0.4,0.3,0.9,0.3,1.5c0,0.8-0.2,1.5-0.6,1.9c-0.4,0.4-0.9,0.6-1.5,0.6
		c-0.7,0-1.2-0.2-1.6-0.6c-0.4-0.4-0.6-1.1-0.6-1.9c0-0.5,0.1-1,0.2-1.4c0.1-0.2,0.2-0.4,0.4-0.6c0.2-0.2,0.4-0.3,0.6-0.4
		C111.8,68.4,112,68.3,112.3,68.3">
  </path>
  <polygon class="st1" points="115.4,68.4 118.4,68.4 118.4,69.3 116.4,69.3 116.4,70.6 117.6,70.6 117.6,71.4 116.4,71.4 
		116.4,73.4 115.4,73.4 	">
  </polygon>
  <rect x="121.4" y="68.4" class="st3" width="1" height="4.9">
  </rect>
  <polygon class="st1" points="123.6,68.4 124.6,68.4 126.6,71.7 126.6,68.4 127.5,68.4 127.5,73.4 126.6,73.4 124.5,69.9 
		124.5,73.4 123.6,73.4 	">
  </polygon>
  <path class="st1" d="M57.2,60h-1.8l-0.1-0.1l-0.2-0.3L55,59.3l0-0.2l0-0.2c0-0.1,0.1-0.3,0.2-0.4c0.1-0.1,0.4-0.2,0.7-0.2
		c0.3,0,0.7,0.2,1.2,0.6c0.7,0.6,1,0.9,1.1,1H57.2 M76.2,60H60.9h-0.4h-1.2c-0.1-0.1-0.5-0.6-0.5-0.6l-0.5-0.5
		c-0.3-0.4-0.8-0.7-1.3-0.9c-0.4-0.2-0.8-0.3-1.2-0.3c-0.9,0-1.6,0.3-1.9,1c-0.1,0.3-0.2,0.5-0.1,0.6l0,0.3l0.1,0.3l0.1,0.2h-7.4
		v0.8h8.1v1.1h-4.1l0.4,0.3l0.2,0.2l0.4,0.4c0.2,0.2,0.3,0.4,0.4,0.6c0.1,0.2,0.1,0.3,0.1,0.5c0,0.2-0.1,0.3-0.2,0.5
		c-0.1,0.1-0.4,0.2-0.6,0.2c-0.5,0-1-0.2-1.5-0.7c-0.4-0.4-0.7-0.9-1-1.3l-0.3-0.6l0-0.1v-0.4l-1,0.5l0.1,0.4l0.3,0.6
		c0.3,0.6,0.7,1.1,1.2,1.5c0.7,0.5,1.4,0.8,2.1,0.8c0.3,0,0.6,0,0.8-0.1c0.5-0.2,0.9-0.4,1-0.8c0.1-0.2,0.1-0.4,0.1-0.6l-0.1-0.3
		L53.1,63l-0.3-0.5h1.9V66h1.1v-5.2h1.2h0.1h1.3V66h1.1v-5.2h1h0.4h4.9v2.7c-0.2,0.2-0.4,0.3-0.7,0.4c-0.1,0.1-0.3,0.1-0.4,0.1
		l-0.3,0l-0.1,0c-0.2,0-0.4,0-0.6-0.1C63.2,63.7,63,63.4,63,63c0-0.1,0-0.2,0.1-0.3c0.1-0.3,0.3-0.4,0.6-0.5c0.1,0,0.3-0.1,0.5-0.1
		l0.4,0l0.4,0.1l0.1,0l0.5,0.2l-0.3-1l-0.1,0l-0.3,0l-0.2,0l-0.3,0l-0.3,0c-0.6,0-1.1,0.1-1.6,0.5c-0.5,0.4-0.7,0.8-0.7,1.3
		c0,0.3,0.1,0.5,0.2,0.7c0.1,0.2,0.3,0.4,0.6,0.5c0.5,0.3,1.1,0.5,1.7,0.5l0.5,0l0.5-0.1l0.4-0.2l0.1-0.1V66H67v-5.2h1.1h0.4h5.5
		v1.2h-4.2l-0.2,0l-0.2,0c-0.3,0.1-0.4,0.3-0.4,0.5v0c0,0.1,0.1,0.2,0.2,0.4c0.2,0.2,0.3,0.4,0.5,0.5l0.6,0.4
		c0.2,0.1,0.3,0.2,0.4,0.2l0.2,0l0.2-0.1l0.1-0.2l0-0.2v-0.8h2.6V66h1.1v-5.2h1.3V60H76.2z">
  </path>
  <path class="st1" d="M38.2,60.7h-2.3l0.1,0.1l0.3,0.4l0.1,0.4v0c0,0.6-0.3,1-1,1.3l-0.4,0.1c0,0-0.2,0-0.3,0.1l0,0.1l0,0.1
		c0.4,0.5,0.9,0.7,1.6,0.7c0.4,0,0.8-0.1,1.1-0.2c0.2-0.1,0.4-0.2,0.5-0.3l0.3-0.3V60.7 M29.6,60c-0.1-0.1-0.4-0.4-1.1-1
		c-0.5-0.4-0.9-0.6-1.2-0.6c-0.3,0-0.5,0.1-0.7,0.2c-0.1,0.1-0.2,0.2-0.2,0.4l0,0.2l0.1,0.2l0.2,0.3l0.2,0.3l0.1,0.1h2H29.6z
		 M40.5,60v0.8h-1.1V66h-1.1v-1.6c-0.5,0.3-1.1,0.4-1.8,0.4c-0.8,0-1.6-0.2-2.2-0.6c-0.7-0.4-1-1-1-1.6v-0.2l0.3,0.1l0.1,0l0.2,0
		l0,0H34c0.3,0,0.7-0.1,0.9-0.2c0.2-0.1,0.3-0.3,0.3-0.6c0-0.1-0.1-0.3-0.3-0.7l-0.4-0.3h-2.1h-0.2H31V66h-1.1v-5.2h-1.1h-0.3h-1.2
		V66h-1.1v-3.7h-2.8c-0.2,0-0.3,0-0.5,0.1c-0.2,0-0.3,0.1-0.4,0.3l-0.1,0.2c0,0.5,0.2,0.9,0.6,1.4c0.4,0.5,0.8,0.8,1.1,0.9l0.2,0.1
		l0.4,0.1L24,66l0,0.1l-0.1,0l-0.3-0.1l-0.4-0.3l-0.6-0.5l-0.3-0.3L22,64.5c-0.4-0.5-0.7-1.1-0.7-1.6c0-0.4,0.1-0.7,0.4-0.9
		c0.1-0.1,0.3-0.2,0.5-0.3c0.2-0.1,0.4-0.1,0.6-0.1h3.3v-0.8h-5.5h-0.5h-0.8V62c0,0.6-0.4,1-1.2,1.2c-0.2,0.1-0.5,0.1-0.7,0.1h-0.1
		c0.3,0.3,0.8,0.8,0.8,0.8l0.4,0.4l0.8,0.6l0.6,0.4L19.2,66l-0.1,0c-0.2-0.1-0.5-0.3-0.9-0.6c-0.5-0.4-1.1-0.9-1.5-1.4l-0.5-0.5
		l-0.5-0.5l-0.3-0.4l-0.4-0.6l0.9-0.5l0.7,0.9c0.1,0.1,0.4,0.2,0.8,0.2c0.3,0,0.6,0,0.7-0.1c0.1-0.1,0.2-0.2,0.2-0.4v-1.2h-3.7h-0.7
		h-0.9V66h-1.1v-5.2h-1.1h-0.4H9.2V66H8.1v-2.8H5.9v0.9l0,0.2l-0.2,0.1l-0.2,0c-0.1,0-0.3-0.1-0.5-0.2c-0.3-0.1-0.5-0.3-0.7-0.5
		l-0.6-0.5c-0.1-0.1-0.2-0.3-0.2-0.4l0-0.1l0.1-0.2l0.2-0.1l0.2-0.1l0.1,0h0.8v-1.4c0-0.1,0-0.1-0.1-0.2c-0.1-0.1-0.2-0.1-0.4-0.1
		l-0.3,0l-0.2,0.1L3.6,61l0,0.2l0,0.1l0.1,0.1l0,0.1l0.3,0.3l-1.2,0l-0.1-0.2l0,0l0,0l-0.1-0.2l0-0.2c0-0.3,0-0.6,0.5-0.9
		C3.4,60.1,3.8,60,4.2,60c0.8,0,1.3,0.2,1.5,0.6c0.1,0.2,0.1,0.3,0.1,0.5v1.3h2.2v-1.7H6.5V60h18.9l-0.1-0.2l-0.1-0.3l0-0.3
		c0-0.2,0-0.4,0.2-0.6c0.3-0.7,1-1,1.9-1c0.4,0,0.8,0.1,1.2,0.3c0.5,0.3,1,0.6,1.3,0.9l0.5,0.5c0,0,0.4,0.5,0.5,0.6h1.4h0.2H40.5z">
  </path>
  <path class="st1" d="M84.7,62.8L84.7,62.8c0.2,0.1,1.8,0.9,2.2,1.1l-0.1,0L86.4,64l-0.2,0H86c-0.2,0-0.4,0-0.5-0.1
		c-0.2,0-0.3-0.1-0.5-0.2c-0.3-0.2-0.4-0.4-0.4-0.6v-0.1l0-0.1L84.7,62.8 M99.1,62.4h-2.5v-1.6h2.5V62.4z M89.8,60h-1.7L88,59.9
		l-0.2-0.3l-0.2-0.3l0-0.2l0-0.2c0-0.1,0.1-0.3,0.2-0.4c0.1-0.1,0.4-0.2,0.7-0.2c0.3,0,0.7,0.2,1.2,0.6c0.7,0.6,1,0.9,1.1,1H89.8z
		 M105.1,60H93.6h-0.2H92c-0.1-0.1-0.5-0.6-0.5-0.6l-0.5-0.5c-0.3-0.4-0.8-0.7-1.3-0.9c-0.4-0.2-0.8-0.3-1.2-0.3
		c-0.9,0-1.6,0.3-1.9,1c-0.1,0.3-0.2,0.5-0.2,0.6l0,0.3l0.1,0.3l0.1,0.2h-4.3v0.8h5.1v2.5l0,0.1c-0.2-0.1-1.7-0.8-2.2-1
		c0.1,0,0.2-0.1,0.2-0.1l0.3-0.1l0.3,0l0.4,0c0.2,0,0.2,0.1,0.2,0.1l0.4,0.3l-0.2-1l-0.2,0l-0.1,0l-0.4-0.1l-0.4,0
		c-0.3,0-0.6,0-0.9,0.1c-0.3,0.1-0.5,0.2-0.8,0.4c-0.5,0.3-0.7,0.8-0.7,1.2c0,0.3,0.1,0.5,0.2,0.7c0.1,0.2,0.3,0.4,0.6,0.6
		c0.5,0.3,1.1,0.5,1.7,0.4l0.4,0l0.5-0.1l0.4-0.1l0.1-0.1V66h1.2v-5.2h1.1h0h1.4V66h1.1v-5.2h1.1h0.2h1.8v1.6h-0.5l-0.2,0l-0.1,0
		l-0.2,0.1l-0.1,0l0,0l-0.1,0.2v0c0,0.1,0.1,0.2,0.2,0.4l0.8,0.7c0.3,0.2,0.5,0.3,0.7,0.3l0.2,0l0.2-0.1l0.1-0.2l0,0l0,0v-0.7h2.5
		V66h1.1v-5.2h0.8h0.4h1.1V66h1.1v-5.2h1.5V60H105.1z">
  </path>
  <path class="st1" d="M137.2,62.4h-2.5v-1.6h2.5V62.4z M114.9,60L114.9,60l-1.3,0l0,0l-0.1-0.2l-0.1-0.2l0-0.2v0
		c0-0.1,0-0.3,0.1-0.4c0.2-0.3,0.4-0.5,0.8-0.6c0.2-0.1,0.4-0.1,0.6-0.1c0.3,0,0.6,0,1,0.1c0.4,0.1,0.8,0.2,1.1,0.4l0.9,0.4l0.4,0.2
		l0.5,0.3l0.3,0.2H114.9z M139.4,60h-18.5l-0.4-0.3l-0.5-0.3l-1.1-0.7c-0.3-0.2-0.7-0.4-1.1-0.6c-1-0.4-2-0.7-2.8-0.7
		c-0.4,0-0.7,0-1,0.1c-0.5,0.1-0.9,0.4-1.2,0.6c-0.3,0.3-0.4,0.6-0.4,0.9v0.1v0.2l0.1,0.3l0.1,0.2h-1.3v0.8h1.4V66h1.2v-5.2h1.3v0
		h5.7v1.2h-4.2l-0.2,0l-0.2,0c-0.3,0.1-0.4,0.3-0.4,0.5v0l0,0c0,0.1,0.1,0.2,0.2,0.4c0.2,0.2,0.3,0.4,0.5,0.5l0.6,0.4
		c0.2,0.1,0.3,0.2,0.4,0.2l0.2,0l0.2-0.1l0.1-0.2l0-0.2v-0.8h2.6V66h1.1v-5.2h1.1h0.2h2.3v1.5c-0.2,0-0.7,0-0.7,0l-0.2,0l-0.2,0
		l-0.2,0.1h0l-0.1,0.2c0,0.1,0.1,0.3,0.2,0.5c0.3,0.4,0.7,0.7,1.2,0.9c0.2,0.1,0.4,0.1,0.6,0.1l0.3-0.1l0,0c0.1-0.1,0.2-0.1,0.2-0.3
		v0v-3h2.2V66h1.2v-5.2h1.5h0.2h1.8v1.6H133l-0.2,0l-0.1,0l-0.2,0.1l0,0v0l-0.1,0.2l0,0c0,0.1,0.1,0.2,0.2,0.4l0.8,0.7
		c0.3,0.2,0.5,0.3,0.7,0.3l0.3,0l0.2-0.1l0.1-0.2l0,0l0,0v-0.7h2.5V66h1.1v-5.2h1.2V60H139.4z">
  </path>
 </g>
</svg>