<svg xmlns="http://www.w3.org/2000/svg" viewBox="0 0 236.23 152.59"><defs><style>.cls-1,.cls-2,.cls-8{fill:#fff;}.cls-2{stroke:#fff;stroke-width:2.65px;}.cls-2,.cls-3,.cls-4,.cls-5,.cls-6,.cls-9{stroke-miterlimit:10;}.cls-3,.cls-4,.cls-5,.cls-6,.cls-9{fill:none;stroke:#ba9b35;}.cls-3,.cls-4,.cls-5,.cls-6{stroke-width:1.33px;}.cls-4{stroke-dasharray:1.96 1.96;}.cls-5{stroke-dasharray:1.99 1.99;}.cls-6{stroke-dasharray:1.98 1.98;}.cls-7{fill:#ba9b35;}.cls-8{font-size:11.94px;font-family:Avenir-Medium, Avenir;font-weight:500;}.cls-9{stroke-width:0.66px;}</style></defs><g id="Layer_2" data-name="Layer 2"><g id="Layer_2-2" data-name="Layer 2"><path class="cls-1" d="M.45,73.47A1.93,1.93,0,0,1,1,72.09a1.77,1.77,0,0,1,1.36-.56l3.13,0a2.77,2.77,0,0,1,2,.84l22,26.36,21.94-26a2.07,2.07,0,0,1,1.57-.8l5.51,0c.48,0,.72.21.71.62a2.15,2.15,0,0,1-.52,1L31,106.06a1.17,1.17,0,0,1-.42.41,2.22,2.22,0,0,1-1.23.4,2.39,2.39,0,0,1-1.33-.43,1.22,1.22,0,0,1-.41-.41L7.14,81.84l-.37,40.82A1.71,1.71,0,0,1,6.18,124a2,2,0,0,1-1.41.5l-2.91,0a1.83,1.83,0,0,1-1.35-.52A1.76,1.76,0,0,1,0,122.6Zm51,17.08a2.85,2.85,0,0,1,.73-1.63l5.06-5.8c.5-.61.92-.92,1.26-.92s.41.21.41.62l-.37,40.32a1.72,1.72,0,0,1-.58,1.32,2,2,0,0,1-1.41.5l-3.54,0a1.77,1.77,0,0,1-1.86-1.86Z"/><path class="cls-2" d="M95.6,122.87V123a1.36,1.36,0,0,1-1.36,1.36H67.8A1.36,1.36,0,0,1,66.44,123v-41a1.35,1.35,0,0,1,1.36-1.35H93.69A1.35,1.35,0,0,1,95,81.94v.13a1.36,1.36,0,0,1-1.35,1.35H70.94a1.35,1.35,0,0,0-1.35,1.36V99.26a1.35,1.35,0,0,0,1.35,1.36H90.48A1.35,1.35,0,0,1,91.84,102h0a1.36,1.36,0,0,1-1.36,1.36H70.94a1.34,1.34,0,0,0-1.35,1.35v15.47a1.35,1.35,0,0,0,1.35,1.36h23.3A1.36,1.36,0,0,1,95.6,122.87Z"/><path class="cls-2" d="M107.49,91v31.78a1.57,1.57,0,0,1-1.57,1.58h0a1.57,1.57,0,0,1-1.57-1.58V82.16a1.57,1.57,0,0,1,1.57-1.57H106a1.55,1.55,0,0,1,1.23.59l27.43,34.41a1.57,1.57,0,0,0,2.8-1V82.22A1.57,1.57,0,0,1,139,80.65h0a1.57,1.57,0,0,1,1.57,1.57v40.55a1.58,1.58,0,0,1-1.57,1.58h-.57a1.56,1.56,0,0,1-1.23-.6L110.29,90A1.57,1.57,0,0,0,107.49,91Z"/><path class="cls-2" d="M178.69,86.41a1.39,1.39,0,0,1-2.08.31q-4.11-3.6-10.88-3.61-6.4,0-9.33,2.44a8.06,8.06,0,0,0-2.93,6.56,7.41,7.41,0,0,0,.74,3.51A6,6,0,0,0,156.52,98a17,17,0,0,0,4,1.66c1.63.47,3.55.94,5.77,1.39,2.38.49,4.52,1,6.41,1.63a18.89,18.89,0,0,1,4.84,2.25,9.58,9.58,0,0,1,3.08,3.33,10,10,0,0,1,1.08,4.87,10.66,10.66,0,0,1-1.14,5.05,10.17,10.17,0,0,1-3.21,3.61,15.36,15.36,0,0,1-4.93,2.19,25.71,25.71,0,0,1-6.38.73A24.71,24.71,0,0,1,149.68,119a1.43,1.43,0,0,1-.28-1.88l.06-.08a1.41,1.41,0,0,1,2.12-.27,20.71,20.71,0,0,0,5.59,3.45,22.87,22.87,0,0,0,9,1.69q5.75,0,9-2.09a7.06,7.06,0,0,0,3.24-6.35,7.57,7.57,0,0,0-.83-3.67,7.42,7.42,0,0,0-2.56-2.62,17.9,17.9,0,0,0-4.29-1.91c-1.7-.53-3.7-1-6-1.54s-4.41-1-6.2-1.57a17,17,0,0,1-4.53-2.1,8.27,8.27,0,0,1-2.77-3,9.69,9.69,0,0,1-.93-4.5,11.58,11.58,0,0,1,1.14-5.24,11.05,11.05,0,0,1,3.18-3.85,14,14,0,0,1,4.87-2.37,23.2,23.2,0,0,1,6.28-.8,21.29,21.29,0,0,1,7.58,1.26,17.5,17.5,0,0,1,5.1,3,1.42,1.42,0,0,1,.28,1.86Z"/><path class="cls-2" d="M185.19,122.22l17.31-40.7a1.53,1.53,0,0,1,1.41-.93h.57a1.51,1.51,0,0,1,1.4.93l17.32,40.7a1.54,1.54,0,0,1-1.41,2.13h-.06a1.53,1.53,0,0,1-1.41-.94L215,110.86a1.52,1.52,0,0,0-1.4-.94H194.73a1.53,1.53,0,0,0-1.41.94L188,123.41a1.54,1.54,0,0,1-1.41.94h0A1.53,1.53,0,0,1,185.19,122.22Zm17.58-34.47-7.41,17.46a1.52,1.52,0,0,0,1.41,2.12h14.68a1.52,1.52,0,0,0,1.41-2.11l-7.27-17.46A1.53,1.53,0,0,0,202.77,87.75Z"/><line class="cls-3" x1="233.29" y1="133.8" x2="233.29" y2="132.81"/><line class="cls-4" x1="233.29" y1="130.84" x2="233.29" y2="41.56"/><line class="cls-3" x1="233.29" y1="40.58" x2="233.29" y2="39.58"/><line class="cls-3" x1="233.78" y1="43.02" x2="232.87" y2="42.62"/><line class="cls-5" x1="231.05" y1="41.82" x2="144.65" y2="3.86"/><line class="cls-3" x1="143.74" y1="3.46" x2="142.83" y2="3.06"/><line class="cls-3" x1="142.83" y1="3.06" x2="141.96" y2="3.55"/><line class="cls-6" x1="140.24" y1="4.53" x2="65.22" y2="47.12"/><line class="cls-3" x1="64.36" y1="47.61" x2="63.49" y2="48.1"/><path class="cls-7" d="M235.35,131.61a3.52,3.52,0,0,0-3.78-3,3.69,3.69,0,0,0-2.94,3.83,3.6,3.6,0,0,0,3.92,3A3.5,3.5,0,0,0,235.35,131.61Z"/><path class="cls-7" d="M66.85,47.63a3.53,3.53,0,0,0-3.78-3,3.68,3.68,0,0,0-2.94,3.83,3.6,3.6,0,0,0,3.91,3A3.5,3.5,0,0,0,66.85,47.63Z"/><path class="cls-7" d="M236.2,42.14a3.54,3.54,0,0,0-3.79-3A3.69,3.69,0,0,0,229.47,43a3.61,3.61,0,0,0,3.92,3A3.51,3.51,0,0,0,236.2,42.14Z"/><path class="cls-7" d="M146.18,3A3.52,3.52,0,0,0,142.4,0a3.68,3.68,0,0,0-2.94,3.82,3.6,3.6,0,0,0,3.92,3A3.5,3.5,0,0,0,146.18,3Z"/><text class="cls-8" transform="translate(116.02 147.03)">HOUSE OF BRANDS</text><line class="cls-9" x1="226.25" y1="133.02" x2="61.04" y2="133.02"/></g></g></svg>