<svg version="1.1" id="Layer_1" xmlns="http://www.w3.org/2000/svg" xmlns:xlink="http://www.w3.org/1999/xlink" x="0px" y="0px" viewBox="-126.3 -45 544.5 158.5" style="enable-background:new -126.3 -45 544.5 158.5;" xml:space="preserve">
 <style type="text/css">
  .st0{fill:#FC8019;}
 </style>
 <g>
  <path class="st0" d="M-72.6,113.5c-0.1-0.1-0.2-0.2-0.3-0.3c-1.9-2.4-13.7-17.2-25.8-36.1c-3.6-6-6-10.8-5.5-12
		c1.2-3.2,22.2-4.9,28.6-2c2,0.9,1.9,2,1.9,2.7c0,2.9-0.1,10.7-0.1,10.7c0,1.6,1.3,2.9,2.9,2.9c1.6,0,2.9-1.3,2.9-2.9l0-19.4h0
		c0-1.7-1.8-2.1-2.2-2.2c-3.4,0-10.2,0-17.6,0c-16.2,0-19.9,0.7-22.6-1.1c-6-3.9-15.7-30.2-16-45c-0.3-20.9,12.1-39,29.5-47.9
		c7.3-3.7,15.5-5.7,24.2-5.7C-45-45-22.3-24.2-19.3,2.6c0,0,0,0,0,0.1c0.6,6.5-35.1,7.9-42.2,6c-1.1-0.3-1.4-1.4-1.4-1.9
		c0-4.9,0-18.8,0-18.8c0-1.6-1.3-2.9-2.9-2.9h0c-1.6,0-2.9,1.3-2.9,2.9l0.1,25.5c0,1.6,1.4,2,1.8,2.1c4,0,13.4,0,22.2,0
		c11.8,0,16.8,1.4,20.1,3.9c2.2,1.7,3,4.9,2.3,9C-29,65.7-71,111.6-72.6,113.5z M41.3,27c10.6,4.5,17.2,9.6,17.2,20.6
		c0,11.3-8.6,18.6-21.8,18.6c-10.7,0-19.3-4.9-23.6-13.3l-0.7-1.4L25,44.2l0.8,1.4c2.8,4.6,6,6.6,10.6,6.6c4,0,6.6-1.8,6.6-4.4
		c0-2.9-1.9-4-7.9-6.6l-3-1.3c-8.1-3.5-15.6-8.2-15.6-19.9c0-10.4,8-17.7,19.5-17.7c8.7,0,14.6,3.4,18.7,10.6l0.8,1.3l-12.2,7.9
		l-0.8-1.5c-2-3.7-4-4.4-6.4-4.4c-2.6,0-4.2,1.4-4.2,3.6c0,2.5,1.2,3.6,6.5,5.9L41.3,27z M130.6,29.1l8.9-24.8h15.3l-22.7,63h-3.4
		L115,37.7c-0.6-1.4-1.3-3-1.9-4.6c-0.6,1.5-1.3,3.2-1.9,4.6L97,67.2h-3.4l-23-63h16.3l9,24.8c0.6,1.6,1.2,3.5,1.7,5.3
		c0.6-1.8,1.3-3.8,2.1-5.5l11.8-25.2h3.3l12,25.2c0.8,1.6,1.5,3.6,2.1,5.5C129.5,32.6,130.1,30.7,130.6,29.1z M172.7,65.4V3h15.4
		v62.4H172.7z M238.7,44.4v-14h28.6v28l-0.6,0.5c-3.3,2.7-12,7.2-23.7,7.2c-19.9,0-33.7-13.2-33.7-32c0-18.5,13.4-31.9,31.8-31.9
		c10.1,0,17.6,2.9,22.7,8.7l1,1.1l-10.5,10.4l-1.1-1.2c-2.9-3-6-4.9-12.1-4.9c-9.4,0-16,7.3-16,17.7c0,10.9,7,17.9,17.9,17.9
		c3.6,0,7.4-0.6,9.9-1.6v-6H238.7z M316.9,44.4v-14h28.6v28l-0.6,0.5c-3.3,2.7-12,7.2-23.7,7.2c-19.9,0-33.7-13.2-33.7-32
		c0-18.5,13.4-31.9,31.8-31.9c10.1,0,17.6,2.9,22.7,8.7l1,1.1l-10.5,10.4l-1.1-1.2c-2.9-3-6-4.9-12.1-4.9c-9.4,0-16,7.3-16,17.7
		c0,10.9,7,17.9,18,17.9c3.6,0,7.4-0.6,9.9-1.6v-6H316.9z M402.1,3h16.1L396,44.5v20.9h-15.5v-20L357,3h17.2l10.9,19.9
		c1.2,2.2,2.4,5,3.3,7.4c0.9-2.3,2.1-5.1,3.2-7.3L402.1,3z">
  </path>
 </g>
</svg>