<svg xmlns:dc="http://purl.org/dc/elements/1.1/" xmlns:cc="http://creativecommons.org/ns#" xmlns:rdf="http://www.w3.org/1999/02/22-rdf-syntax-ns#" xmlns:svg="http://www.w3.org/2000/svg" xmlns="http://www.w3.org/2000/svg" viewBox="0 0 1333.3333 1333.3333" height="1333.3333" width="1333.3333" xml:space="preserve" id="svg2" version="1.1" xmlns:xlink="http://www.w3.org/1999/xlink">
 <metadata id="metadata8">
  <rdf:RDF>
   <cc:Work rdf:about="">
    <dc:format>
     image/svg+xml
    </dc:format>
    <dc:type rdf:resource="http://purl.org/dc/dcmitype/StillImage">
    </dc:type>
   </cc:Work>
  </rdf:RDF>
 </metadata>
 <defs id="defs6">
 </defs>
 <g transform="matrix(1.3333333,0,0,-1.3333333,0,1333.3333)" id="g10">
  <g transform="scale(0.1)" id="g12">
   <path id="path14" style="fill:#e3263f;fill-opacity:1;fill-rule:nonzero;stroke:none" d="M 246.621,10000 H 9753.37 c 136.22,0 246.63,-110.42 246.63,-246.62 V 246.629 C 10000,110.43 9889.59,0.0117188 9753.37,0.0117188 H 246.621 C 110.414,0.0117188 0,110.43 0,246.629 V 9753.38 c 0,136.2 110.414,246.62 246.621,246.62">
   </path>
   <path id="path16" style="fill:#ffffff;fill-opacity:1;fill-rule:nonzero;stroke:none" d="m 7912.44,4515.76 -53.15,-328.96 c -82.35,-44.55 -236.44,-108.66 -414.5,-108.66 -302.86,0 -363.99,161.64 -316.15,504.52 l 77.04,551.93 h -149.01 l 42.14,357.24 162.67,7.88 61.1,259.25 459.64,172.81 -58.44,-432.06 h 316.2 c -10.67,-44.59 -47.84,-289.87 -58.45,-365.12 h -308.22 l -69.1,-510.12 c -18.59,-131.01 -7.93,-178.4 82.37,-178.4 66.43,0 164.75,39.01 225.86,69.69 z m -2386.82,560.27 c 34.57,236.96 15.92,451.56 -247.07,451.56 -191.27,0 -398.54,-161.66 -544.67,-432.04 31.87,223.01 13.29,432.04 -247.09,432.04 -196.61,0 -409.18,-170.03 -555.29,-451.56 37.17,183.98 29.21,393.03 18.57,437.66 -151.42,-25.14 -284.26,-39.04 -470.25,-44.63 5.31,-128.23 -2.68,-295.48 -26.58,-454.34 l -61.11,-418.14 c -23.9,-164.44 -50.46,-354.05 -77.05,-473.89 h 494.21 c 2.63,72.49 21.23,186.79 34.52,287.16 l 42.51,287.06 c 34.54,186.79 183.33,406.97 297.58,406.97 66.43,0 63.76,-64.1 45.18,-183.97 l -47.83,-323.33 c -23.91,-164.44 -50.49,-354.05 -77.06,-473.89 h 499.5 c 2.65,72.49 18.6,186.79 31.89,287.16 l 42.5,287.06 c 34.55,186.79 183.34,406.97 297.56,406.97 66.46,0 63.78,-61.28 53.14,-144.94 l -119.25,-836.25 h 455.83 z m 3858.76,-149.28 c 0,-468.81 -331.13,-858.52 -769.91,-858.52 -393,0 -594.86,268.29 -594.86,618.48 0,465.95 333.77,855.7 769.89,855.7 398.35,0 594.88,-268.29 594.88,-615.66 z m -886.53,-230.82 c 0,-170.07 55.77,-256.47 151.44,-256.47 127.56,0 228.5,206.24 228.5,457.15 0,172.82 -55.8,256.43 -148.82,256.43 -127.51,0 -231.12,-203.47 -231.12,-457.11 z m -5206.67,221.12 c 0,-462.7 -326.82,-847.38 -759.88,-847.38 -387.92,0 -587.2,264.81 -587.2,610.43 0,459.92 329.47,844.6 759.9,844.6 393.23,0 587.18,-264.81 587.18,-607.65 z m -868.82,-221.12 c 0,-170.07 55.8,-256.47 151.42,-256.47 127.57,0 228.52,206.24 228.52,457.15 0,172.82 -55.8,256.43 -148.79,256.43 -127.54,0 -231.15,-203.47 -231.15,-457.11 z m -470.27,795.44 -7.99,-253.67 -661.55,-719.19 c 276.31,0 451.66,2.83 552.64,8.38 -29.24,-136.59 -53.15,-248.1 -77.05,-415.27 -132.85,11.07 -340.11,13.87 -547.33,13.87 -231.146,0 -433.08,-2.8 -595.165,-13.87 l 5.332,256.37 661.573,716.41 c -289.62,0 -395.878,-2.79 -515.46,-5.59 26.562,128.2 45.18,270.39 63.785,412.56 209.895,-8.37 292.245,-11.14 565.925,-11.14 252.4,0 395.86,2.77 555.29,11.14">
   </path>
   <path id="path18" style="fill:#ffffff;fill-opacity:1;fill-rule:nonzero;stroke:none" d="m 6026.68,4104.45 c -236.04,-29.01 -391.52,64.67 -438.19,277.88 -29.34,134.13 11.29,286.79 82.45,378.04 95.19,119.17 250.49,195.76 439.79,218.98 152.44,18.71 280.82,9.46 400.91,-13.27 l 4.98,20.62 c 3.42,32.9 6.84,65.82 2.03,105.25 -12.41,100.95 -92.16,161.17 -288.83,137.03 -132.75,-16.31 -259.13,-64.32 -357.25,-118.9 l -95.3,288.32 c 132.85,76.32 300.45,134.37 492.19,157.92 366.32,44.97 623.63,-71.86 656.59,-340.33 8.75,-71.45 9.82,-147.2 0.79,-215.77 -47.09,-332.04 -77.23,-581.81 -90.41,-749.36 -2.05,-25.83 -1.86,-70.35 0.47,-133.61 l -454.52,0.42 c 9.64,26.25 18.32,61.63 26.04,106.1 5.05,29.28 8.71,66.29 11.06,110.98 -96.15,-131.8 -228.1,-210.1 -392.8,-230.3 z m 142.52,254.88 c 167.18,20.54 282.31,181.85 309.99,342.75 l 4.65,43.1 c -71.85,16.17 -175.67,28.42 -276.46,16.04 -95.88,-11.8 -175.82,-51.61 -218.67,-109.38 -32.34,-41.43 -48.72,-90.97 -41.49,-150.05 10.92,-88.68 108.9,-156.33 221.98,-142.46">
   </path>
  </g>
 </g>
</svg>